<svg xmlns="http://www.w3.org/2000/svg" width="512" height="512" viewBox="0 0 512 512">
  <defs>
    <filter id="shadow" x="-50%" y="-50%" width="200%" height="200%">
      <feDropShadow dx="0" dy="2" stdDeviation="3" flood-opacity="0.35"></feDropShadow>
    </filter>
    <linearGradient id="metal" x1="0" x2="0" y1="0" y2="1">
      <stop offset="0" stop-color="#9aa0a6"></stop>
      <stop offset="0.5" stop-color="#6e747a"></stop>
      <stop offset="1" stop-color="#3f4449"></stop>
    </linearGradient>
  </defs>

  <!-- Einrast-Ring für deinen Mount -->
  <g filter="url(#shadow)">
    <circle cx="256" cy="256" r="120" fill="url(#metal)"></circle>
    <circle cx="256" cy="256" r="120" fill="none" stroke="#2a2e32" stroke-width="6"></circle>
    <!-- Lager-Zähne -->
    <g fill="#2f3439">
      <rect x="248" y="128" width="16" height="16" rx="2"></rect>
      <use href="#t"></use>
    </g>
  </g>

  <!-- DREHBARER TURRET: rotiere diese Gruppe -->
  <g id="turret" transform="rotate(0 256 256)">
    <!-- Sockel -->
    <circle cx="256" cy="256" r="95" fill="url(#metal)" stroke="#2a2e32" stroke-width="5"></circle>
    <circle cx="256" cy="256" r="78" fill="none" stroke="#8b9196" stroke-width="2" stroke-dasharray="10 8"></circle>

    <!-- Geschützgehäuse -->
    <path d="M206 256 h100 a22 22 0 0 1 22 22 v18 a22 22 0 0 1 -22 22 h-100 a22 22 0 0 1 -22 -22 v-18 a22 22 0 0 1 22 -22z" fill="url(#metal)" stroke="#2a2e32" stroke-width="4"></path>

    <!-- Laufträger -->
    <rect x="238" y="210" width="36" height="56" rx="6" fill="#555a60" stroke="#2a2e32" stroke-width="4"></rect>

    <!-- EINZEL-LAUF, ÜBERHANG KLAR SICHTBAR -->
    <!-- Läufe beginnen im Träger und ragen weit über den Ring hinaus -->
    <rect x="248" y="112" width="16" height="98" rx="4" fill="#6c7278" stroke="#2a2e32" stroke-width="3"></rect>
    <!-- Mündung -->
    <rect x="246" y="96" width="20" height="20" rx="3" fill="#222629" stroke="#5a6166" stroke-width="2"></rect>

    <!-- Visierlinie zur Ausrichtung (dezent) -->
    <line x1="256" y1="256" x2="256" y2="96" stroke="#d04a4a" stroke-width="3" stroke-dasharray="6 8" opacity="0.7"></line>
  </g>

  <!-- Feinmarken am Ring -->
  <g stroke="#d04a4a" stroke-width="4" opacity="0.7">
    <line x1="256" y1="344" x2="256" y2="360"></line>
    <line x1="256" y1="152" x2="256" y2="136"></line>
  </g>
</svg>
