<svg xmlns="http://www.w3.org/2000/svg" width="512" height="512" viewBox="0 0 512 512">
  <defs>
    <linearGradient id="shell" x1="0" y1="0" x2="0" y2="1">
      <stop offset="0" stop-color="#9a9fa5"></stop>
      <stop offset="0.5" stop-color="#6d7379"></stop>
      <stop offset="1" stop-color="#3f454a"></stop>
    </linearGradient>
    <radialGradient id="highlight" cx="50%" cy="35%" r="60%">
      <stop offset="0" stop-color="#ffffff" stop-opacity="0.25"></stop>
      <stop offset="1" stop-color="#ffffff" stop-opacity="0"></stop>
    </radialGradient>
    <filter id="shadow" x="-50%" y="-50%" width="200%" height="200%">
      <feDropShadow dx="0" dy="3" stdDeviation="3" flood-opacity="0.35"></feDropShadow>
    </filter>
  </defs>

  <!-- Körper -->
  <g filter="url(#shadow)">
    <circle cx="256" cy="256" r="128" fill="url(#shell)" stroke="#262a2d" stroke-width="6"></circle>
    <circle cx="256" cy="256" r="128" fill="url(#highlight)"></circle>
  </g>

  <!-- Gürtel/Naht -->
  <circle cx="256" cy="256" r="100" fill="none" stroke="#8a9096" stroke-width="3" stroke-dasharray="10 8" opacity="0.9"></circle>

  <!-- Spikes -->
  <g fill="#5e646a" stroke="#262a2d" stroke-width="5">
    <rect x="248" y="92" width="16" height="56" rx="6"></rect>
    <rect x="248" y="364" width="16" height="56" rx="6"></rect>
    <rect x="92" y="248" width="56" height="16" rx="6"></rect>
    <rect x="364" y="248" width="56" height="16" rx="6"></rect>
    <rect x="154" y="140" width="16" height="48" rx="6" transform="rotate(-45 162 164)"></rect>
    <rect x="342" y="140" width="16" height="48" rx="6" transform="rotate(45 350 164)"></rect>
    <rect x="154" y="324" width="16" height="48" rx="6" transform="rotate(45 162 348)"></rect>
    <rect x="342" y="324" width="16" height="48" rx="6" transform="rotate(-45 350 348)"></rect>
  </g>

  <!-- Bolzen um den Körper -->
  <g fill="#2e3337" stroke="#1f2326" stroke-width="2">
    <circle cx="256" cy="128" r="8"></circle>
    <circle cx="256" cy="384" r="8"></circle>
    <circle cx="128" cy="256" r="8"></circle>
    <circle cx="384" cy="256" r="8"></circle>
    <circle cx="188" cy="180" r="7"></circle>
    <circle cx="324" cy="180" r="7"></circle>
    <circle cx="188" cy="332" r="7"></circle>
    <circle cx="324" cy="332" r="7"></circle>
  </g>

  <!-- Zündergehäuse oben -->
  <g>
    <rect x="236" y="146" width="40" height="26" rx="6" fill="#4e545a" stroke="#262a2d" stroke-width="5"></rect>
    <rect x="242" y="130" width="28" height="16" rx="4" fill="#3f454a" stroke="#262a2d" stroke-width="4"></rect>
    <!-- Sicherungsstift -->
    <circle cx="256" cy="124" r="6" fill="#b33a3a" stroke="#5a1c1c" stroke-width="2"></circle>
  </g>

  <!-- Arming-Markierungen -->
  <g stroke="#cf3f3f" stroke-width="4" opacity="0.9">
    <line x1="256" y1="210" x2="256" y2="182"></line>
    <line x1="238" y1="226" x2="220" y2="214"></line>
    <line x1="274" y1="226" x2="292" y2="214"></line>
  </g>
</svg>
